<svg width="692" height="189" viewBox="0 0 692 189" fill="none" xmlns="http://www.w3.org/2000/svg">
<path d="M119.638 45.098H143.374C144.165 45.098 144.561 45.5596 144.561 46.4826V58.5487C144.561 59.4718 144.033 59.9333 142.979 59.9333H134.077C130.912 59.9333 129.066 60.5267 128.539 61.7136C128.011 63.4279 127.748 65.34 127.748 67.4499V128.769C127.748 133.253 126.231 136.945 123.198 139.846C120.297 142.615 115.945 144 110.143 144H98.077V67.0543C98.077 59.274 99.7913 53.6695 103.22 50.2409C106.78 46.8123 112.253 45.098 119.638 45.098ZM194 45.098H213.187C218.198 45.098 222.286 45.3618 225.451 45.8892C228.616 46.2848 231.385 47.2739 233.759 48.8563C236.132 50.4387 237.913 52.219 239.1 54.197C240.286 56.0432 241.209 59.0762 241.869 63.296C242.924 69.2301 243.451 77.5379 243.451 88.2193C243.451 98.9007 243.385 106.154 243.253 109.978C243.122 113.67 242.858 117.626 242.462 121.846C242.198 126.066 241.605 129.165 240.682 131.143C239.891 133.121 238.77 135.165 237.319 137.275C236.001 139.253 234.22 140.637 231.979 141.429C227.099 143.143 220.836 144 213.187 144H212.792V69.4279C212.792 69.1642 212.792 68.373 212.792 67.0543C212.792 65.7356 212.726 64.6147 212.594 63.6916C211.934 61.1861 209.297 59.9333 204.682 59.9333H194V45.098ZM188.066 45.098V119.67C188.066 119.934 188.066 120.725 188.066 122.044C188.066 123.362 188.198 124.483 188.462 125.406C188.989 127.912 191.561 129.165 196.176 129.165H206.857V144H187.67C182.659 144 178.572 143.802 175.407 143.407C172.242 142.879 169.473 141.824 167.099 140.242C164.725 138.659 162.945 136.945 161.758 135.099C160.571 133.121 159.582 130.022 158.791 125.802C157.868 119.868 157.406 111.56 157.406 100.879C157.406 90.1973 157.472 83.0104 157.604 79.3181C157.736 75.4939 157.934 71.4719 158.198 67.2521C158.593 63.0322 159.187 59.9333 159.978 57.9553C160.901 55.9772 162.022 53.9992 163.341 52.0212C164.791 49.9112 166.637 48.4607 168.879 47.6695C173.758 45.9552 180.022 45.098 187.67 45.098H188.066ZM352.338 45.098H379.24C393.613 45.098 400.8 52.153 400.8 66.263V144H378.251C376.141 144 374.426 143.275 373.108 141.824C371.789 140.374 371.13 138.461 371.13 136.088V65.8674C371.13 63.7575 370.602 62.241 369.547 61.3179C368.624 60.3949 366.448 59.9333 363.02 59.9333H352.338V45.098ZM264.118 45.098H276.184C281.986 45.098 286.338 46.5486 289.239 49.4497C292.272 52.219 293.788 55.8454 293.788 60.3289V144H271.239C269.129 144 267.414 143.275 266.096 141.824C264.777 140.374 264.118 138.461 264.118 136.088V45.098ZM298.733 45.098H325.635C340.008 45.098 347.195 52.153 347.195 66.263V144H324.646C322.536 144 320.821 143.275 319.503 141.824C318.184 140.374 317.525 138.461 317.525 136.088V65.8674C317.525 63.7575 316.997 62.241 315.942 61.3179C315.019 60.3949 312.843 59.9333 309.415 59.9333H298.733V45.098ZM457.779 45.098H476.966C490.021 45.098 498.065 47.3398 501.098 51.8234C502.549 53.9333 503.67 55.9772 504.461 57.9553C505.384 59.9333 505.977 63.0322 506.241 67.2521C506.901 74.9005 507.23 83.4061 507.23 92.7688C507.23 102.131 507.164 108.923 507.032 113.143C506.901 117.231 506.439 121.45 505.648 125.802C504.988 130.022 504.065 133.121 502.879 135.099C501.692 136.945 499.911 138.659 497.538 140.242C495.164 141.824 492.395 142.879 489.23 143.407C486.065 143.802 481.977 144 476.966 144H457.779V129.165H468.461C471.889 129.165 474.065 128.703 474.988 127.78C476.043 126.857 476.571 125.406 476.571 123.428V65.8674C476.571 63.7575 476.043 62.241 474.988 61.3179C474.065 60.3949 471.889 59.9333 468.461 59.9333H457.779V45.098ZM451.845 188.11H439.779C433.977 188.11 429.559 186.66 426.526 183.759C423.625 180.989 422.175 177.363 422.175 172.879V60.3289C422.175 55.8454 423.625 52.219 426.526 49.4497C429.559 46.5486 433.977 45.098 439.779 45.098H451.845V188.11ZM578.134 142.418C578.134 143.209 577.739 143.736 576.947 144H561.914C552.288 144 545.299 142.088 540.947 138.264C536.595 134.439 534.42 127.714 534.42 118.088V60.3289H524.332C521.035 60.3289 519.386 58.3509 519.386 54.3948V45.098H534.42V0.987731H546.486C552.288 0.987731 556.64 2.43829 559.541 5.33942C562.574 8.24055 564.09 11.9329 564.09 16.4164V121.648C564.09 126.527 566.859 128.967 572.398 128.967H576.552C577.607 128.967 578.134 129.428 578.134 130.352V142.418ZM584.266 45.098V54.3948C584.266 58.3509 582.618 60.3289 579.321 60.3289H569.035V45.098H584.266ZM631.533 45.098H650.72C655.731 45.098 659.819 45.3618 662.984 45.8892C666.148 46.2848 668.918 47.2739 671.291 48.8563C673.665 50.4387 675.445 52.219 676.632 54.197C677.819 56.0432 678.742 59.0762 679.401 63.296C680.456 69.2301 680.984 77.5379 680.984 88.2193C680.984 98.9007 680.918 106.154 680.786 109.978C680.654 113.67 680.39 117.626 679.995 121.846C679.731 126.066 679.138 129.165 678.214 131.143C677.423 133.121 676.302 135.165 674.852 137.275C673.533 139.253 671.753 140.637 669.511 141.429C664.632 143.143 658.368 144 650.72 144H650.324V69.4279C650.324 69.1642 650.324 68.373 650.324 67.0543C650.324 65.7356 650.258 64.6147 650.126 63.6916C649.467 61.1861 646.83 59.9333 642.214 59.9333H631.533V45.098ZM625.599 45.098V119.67C625.599 119.934 625.599 120.725 625.599 122.044C625.599 123.362 625.73 124.483 625.994 125.406C626.522 127.912 629.093 129.165 633.709 129.165H644.39V144H625.203C620.192 144 616.104 143.802 612.939 143.407C609.774 142.879 607.005 141.824 604.631 140.242C602.258 138.659 600.477 136.945 599.291 135.099C598.104 133.121 597.115 130.022 596.324 125.802C595.4 119.868 594.939 111.56 594.939 100.879C594.939 90.1973 595.005 83.0104 595.137 79.3181C595.269 75.4939 595.466 71.4719 595.73 67.2521C596.126 63.0322 596.719 59.9333 597.51 57.9553C598.433 55.9772 599.554 53.9992 600.873 52.0212C602.324 49.9112 604.17 48.4607 606.412 47.6695C611.291 45.9552 617.555 45.098 625.203 45.098H625.599Z" fill="#380D54"/>
<path fill-rule="evenodd" clip-rule="evenodd" d="M0 1.11426H65.6323C89.9406 1.11426 98.8537 35.9561 81.8379 50.5411C77.2455 55.1334 70.0026 59.9425 61.6728 65.4732C37.6688 81.411 4.63867 103.342 0 143.35V1.11426ZM47.6598 9.54886C47.6598 10.2717 47.2671 10.9027 46.6834 11.2403V16.3831C46.6834 16.9223 46.2463 17.3594 45.7071 17.3594C45.1679 17.3594 44.7308 16.9223 44.7308 16.3831V11.2402C44.1472 10.9026 43.7546 10.2716 43.7546 9.54886C43.7546 8.47046 44.6288 7.59625 45.7072 7.59625C46.7856 7.59625 47.6598 8.47046 47.6598 9.54886ZM31.5132 18.9403C24.5036 18.9403 18.8212 24.6227 18.8212 31.6323C18.8212 38.6419 24.5036 44.3244 31.5132 44.3244H58.8499C65.8595 44.3244 71.5419 38.6419 71.5419 31.6323C71.5419 24.6227 65.8595 18.9403 58.8499 18.9403H31.5132ZM16.8689 27.0431C14.7121 27.0431 12.9637 28.7915 12.9637 30.9483V32.9009C12.9637 35.0577 14.7121 36.8062 16.8689 36.8062V27.0431ZM73.4942 27.0431C75.651 27.0431 77.3995 28.7915 77.3995 30.9483V32.9009C77.3995 35.0577 75.651 36.8062 73.4942 36.8062V27.0431Z" fill="#8A2CC5"/>
<ellipse cx="34.3636" cy="32.5688" rx="1.95262" ry="3.90524" fill="#0097FE"/>
<ellipse cx="57.7156" cy="32.5688" rx="1.95262" ry="3.90524" fill="#0097FE"/>
<path fill-rule="evenodd" clip-rule="evenodd" d="M5.86133 143.6V143.973H20.4463C29.3964 143.973 36.6518 136.717 36.6518 127.767V88.624C21.5687 102.206 8.63597 119.669 5.86133 143.6Z" fill="#0097FE"/>
</svg>
