<svg width="692" height="189" viewBox="0 0 692 189" fill="none" xmlns="http://www.w3.org/2000/svg">
<path d="M119.382 45.098H143.118C143.909 45.098 144.305 45.5596 144.305 46.4826V58.5487C144.305 59.4718 143.778 59.9333 142.723 59.9333H133.821C130.657 59.9333 128.81 60.5267 128.283 61.7136C127.755 63.4279 127.492 65.34 127.492 67.4499V128.769C127.492 133.253 125.975 136.945 122.942 139.846C120.041 142.615 115.689 144 109.887 144H97.8212V67.0543C97.8212 59.274 99.5355 53.6695 102.964 50.2409C106.525 46.8123 111.997 45.098 119.382 45.098ZM193.744 45.098H212.931C217.942 45.098 222.03 45.3618 225.195 45.8892C228.36 46.2848 231.129 47.2739 233.503 48.8563C235.877 50.4387 237.657 52.219 238.844 54.197C240.03 56.0432 240.954 59.0762 241.613 63.296C242.668 69.2301 243.195 77.5379 243.195 88.2193C243.195 98.9007 243.129 106.154 242.998 109.978C242.866 113.67 242.602 117.626 242.206 121.846C241.943 126.066 241.349 129.165 240.426 131.143C239.635 133.121 238.514 135.165 237.063 137.275C235.745 139.253 233.964 140.637 231.723 141.429C226.844 143.143 220.58 144 212.931 144H212.536V69.4279C212.536 69.1642 212.536 68.373 212.536 67.0543C212.536 65.7356 212.47 64.6147 212.338 63.6916C211.679 61.1861 209.041 59.9333 204.426 59.9333H193.744V45.098ZM187.81 45.098V119.67C187.81 119.934 187.81 120.725 187.81 122.044C187.81 123.362 187.942 124.483 188.206 125.406C188.733 127.912 191.305 129.165 195.92 129.165H206.602V144H187.415C182.404 144 178.316 143.802 175.151 143.407C171.986 142.879 169.217 141.824 166.843 140.242C164.469 138.659 162.689 136.945 161.502 135.099C160.315 133.121 159.326 130.022 158.535 125.802C157.612 119.868 157.151 111.56 157.151 100.879C157.151 90.1973 157.217 83.0104 157.348 79.3181C157.48 75.4939 157.678 71.4719 157.942 67.2521C158.337 63.0322 158.931 59.9333 159.722 57.9553C160.645 55.9772 161.766 53.9992 163.085 52.0212C164.535 49.9112 166.381 48.4607 168.623 47.6695C173.502 45.9552 179.766 45.098 187.415 45.098H187.81ZM352.082 45.098H378.984C393.357 45.098 400.544 52.153 400.544 66.263V144H377.995C375.885 144 374.171 143.275 372.852 141.824C371.533 140.374 370.874 138.461 370.874 136.088V65.8674C370.874 63.7575 370.346 62.241 369.291 61.3179C368.368 60.3949 366.192 59.9333 362.764 59.9333H352.082V45.098ZM263.862 45.098H275.928C281.73 45.098 286.082 46.5486 288.983 49.4497C292.016 52.219 293.532 55.8454 293.532 60.3289V144H270.983C268.873 144 267.159 143.275 265.84 141.824C264.521 140.374 263.862 138.461 263.862 136.088V45.098ZM298.478 45.098H325.379C339.753 45.098 346.939 52.153 346.939 66.263V144H324.39C322.28 144 320.566 143.275 319.247 141.824C317.928 140.374 317.269 138.461 317.269 136.088V65.8674C317.269 63.7575 316.741 62.241 315.686 61.3179C314.763 60.3949 312.588 59.9333 309.159 59.9333H298.478V45.098ZM457.523 45.098H476.71C489.765 45.098 497.809 47.3398 500.842 51.8234C502.293 53.9333 503.414 55.9772 504.205 57.9553C505.128 59.9333 505.722 63.0322 505.985 67.2521C506.645 74.9005 506.974 83.4061 506.974 92.7688C506.974 102.131 506.908 108.923 506.777 113.143C506.645 117.231 506.183 121.45 505.392 125.802C504.733 130.022 503.809 133.121 502.623 135.099C501.436 136.945 499.656 138.659 497.282 140.242C494.908 141.824 492.139 142.879 488.974 143.407C485.809 143.802 481.721 144 476.71 144H457.523V129.165H468.205C471.633 129.165 473.809 128.703 474.732 127.78C475.787 126.857 476.315 125.406 476.315 123.428V65.8674C476.315 63.7575 475.787 62.241 474.732 61.3179C473.809 60.3949 471.633 59.9333 468.205 59.9333H457.523V45.098ZM451.589 188.11H439.523C433.721 188.11 429.303 186.66 426.27 183.759C423.369 180.989 421.919 177.363 421.919 172.879V60.3289C421.919 55.8454 423.369 52.219 426.27 49.4497C429.303 46.5486 433.721 45.098 439.523 45.098H451.589V188.11ZM577.878 142.418C577.878 143.209 577.483 143.736 576.692 144H561.658C552.032 144 545.043 142.088 540.691 138.264C536.34 134.439 534.164 127.714 534.164 118.088V60.3289H524.076C520.779 60.3289 519.131 58.3509 519.131 54.3948V45.098H534.164V0.987731H546.23C552.032 0.987731 556.384 2.43829 559.285 5.33942C562.318 8.24055 563.834 11.9329 563.834 16.4164V121.648C563.834 126.527 566.604 128.967 572.142 128.967H576.296C577.351 128.967 577.878 129.428 577.878 130.352V142.418ZM584.01 45.098V54.3948C584.01 58.3509 582.362 60.3289 579.065 60.3289H568.779V45.098H584.01ZM631.277 45.098H650.464C655.475 45.098 659.563 45.3618 662.728 45.8892C665.893 46.2848 668.662 47.2739 671.035 48.8563C673.409 50.4387 675.189 52.219 676.376 54.197C677.563 56.0432 678.486 59.0762 679.145 63.296C680.2 69.2301 680.728 77.5379 680.728 88.2193C680.728 98.9007 680.662 106.154 680.53 109.978C680.398 113.67 680.134 117.626 679.739 121.846C679.475 126.066 678.882 129.165 677.959 131.143C677.167 133.121 676.046 135.165 674.596 137.275C673.277 139.253 671.497 140.637 669.255 141.429C664.376 143.143 658.112 144 650.464 144H650.068V69.4279C650.068 69.1642 650.068 68.373 650.068 67.0543C650.068 65.7356 650.002 64.6147 649.87 63.6916C649.211 61.1861 646.574 59.9333 641.958 59.9333H631.277V45.098ZM625.343 45.098V119.67C625.343 119.934 625.343 120.725 625.343 122.044C625.343 123.362 625.475 124.483 625.738 125.406C626.266 127.912 628.837 129.165 633.453 129.165H644.134V144H624.947C619.936 144 615.848 143.802 612.683 143.407C609.518 142.879 606.749 141.824 604.375 140.242C602.002 138.659 600.222 136.945 599.035 135.099C597.848 133.121 596.859 130.022 596.068 125.802C595.145 119.868 594.683 111.56 594.683 100.879C594.683 90.1973 594.749 83.0104 594.881 79.3181C595.013 75.4939 595.211 71.4719 595.474 67.2521C595.87 63.0322 596.463 59.9333 597.255 57.9553C598.178 55.9772 599.299 53.9992 600.617 52.0212C602.068 49.9112 603.914 48.4607 606.156 47.6695C611.035 45.9552 617.299 45.098 624.947 45.098H625.343Z" fill="white"/>
<path fill-rule="evenodd" clip-rule="evenodd" d="M0 1.11426H65.6323C89.9406 1.11426 98.8537 35.9561 81.8379 50.5411C77.2455 55.1334 70.0026 59.9425 61.6728 65.4732C37.6688 81.411 4.63867 103.342 0 143.35V1.11426ZM47.6598 9.54886C47.6598 10.2717 47.2671 10.9027 46.6834 11.2403V16.3831C46.6834 16.9223 46.2463 17.3594 45.7071 17.3594C45.1679 17.3594 44.7308 16.9223 44.7308 16.3831V11.2402C44.1472 10.9026 43.7546 10.2716 43.7546 9.54886C43.7546 8.47046 44.6288 7.59625 45.7072 7.59625C46.7856 7.59625 47.6598 8.47046 47.6598 9.54886ZM31.5132 18.9403C24.5036 18.9403 18.8212 24.6227 18.8212 31.6323C18.8212 38.6419 24.5036 44.3244 31.5132 44.3244H58.8499C65.8595 44.3244 71.5419 38.6419 71.5419 31.6323C71.5419 24.6227 65.8595 18.9403 58.8499 18.9403H31.5132ZM16.8689 27.0431C14.7121 27.0431 12.9637 28.7915 12.9637 30.9483V32.9009C12.9637 35.0577 14.7121 36.8062 16.8689 36.8062V27.0431ZM73.4942 27.0431C75.651 27.0431 77.3995 28.7915 77.3995 30.9483V32.9009C77.3995 35.0577 75.651 36.8062 73.4942 36.8062V27.0431Z" fill="white"/>
<ellipse cx="34.3638" cy="32.5688" rx="1.95262" ry="3.90524" fill="white"/>
<ellipse cx="57.7156" cy="32.5688" rx="1.95262" ry="3.90524" fill="white"/>
<path fill-rule="evenodd" clip-rule="evenodd" d="M5.86133 143.6V143.973H20.4463C29.3964 143.973 36.6518 136.717 36.6518 127.767V88.624C21.5687 102.206 8.63597 119.669 5.86133 143.6Z" fill="white"/>
</svg>
